<?xml version="1.0" encoding="UTF-8" standalone="no"?>
<svg
   xmlns:dc="http://purl.org/dc/elements/1.1/"
   xmlns:cc="http://creativecommons.org/ns#"
   xmlns:rdf="http://www.w3.org/1999/02/22-rdf-syntax-ns#"
   xmlns:svg="http://www.w3.org/2000/svg"
   xmlns="http://www.w3.org/2000/svg"
   xmlns:sodipodi="http://sodipodi.sourceforge.net/DTD/sodipodi-0.dtd"
   xmlns:inkscape="http://www.inkscape.org/namespaces/inkscape"
   width="210mm"
   height="297mm"
   viewBox="0 0 210 297"
   version="1.1"
   id="svg8"
   inkscape:version="1.0 (4035a4fb49, 2020-05-01)"
   sodipodi:docname="kopruu.svg">
  <defs
     id="defs2" />
  <sodipodi:namedview
     id="base"
     pagecolor="#ffffff"
     bordercolor="#666666"
     borderopacity="1.0"
     inkscape:pageopacity="0.0"
     inkscape:pageshadow="2"
     inkscape:zoom="0.24748737"
     inkscape:cx="307.96203"
     inkscape:cy="643.32969"
     inkscape:document-units="mm"
     inkscape:current-layer="layer1"
     inkscape:document-rotation="0"
     showgrid="false"
     inkscape:snap-global="false"
     inkscape:window-width="1366"
     inkscape:window-height="705"
     inkscape:window-x="-8"
     inkscape:window-y="-8"
     inkscape:window-maximized="1" />
  <metadata
     id="metadata5">
    <rdf:RDF>
      <cc:Work
         rdf:about="">
        <dc:format>image/svg+xml</dc:format>
        <dc:type
           rdf:resource="http://purl.org/dc/dcmitype/StillImage" />
        <dc:title />
      </cc:Work>
    </rdf:RDF>
  </metadata>
  <g
     inkscape:label="Katman 1"
     inkscape:groupmode="layer"
     id="layer1">
    <g
       inkscape:export-ydpi="96"
       inkscape:export-xdpi="96"
       inkscape:export-filename="C:\Users\OguzcanUZUNONER\Desktop\Web Tasarımı Vize\logo.png"
       id="g87"
       transform="translate(246.35538,73.76639)">
      <path
         style="fill:#000000;fill-opacity:1;stroke:none;stroke-width:0.264583px;stroke-linecap:butt;stroke-linejoin:miter;stroke-opacity:1"
         d="m -222.50187,67.549104 c 0,0 2.7395,14.165286 3.27404,16.236624 0.53454,2.071339 0.40092,1.336347 0.40092,1.336347 h 1.67042 l -5.34538,-24.655612 z"
         id="path72"
         inkscape:connector-curvature="0" />
      <path
         style="fill:#000000;fill-opacity:1;stroke:none;stroke-width:0.264583px;stroke-linecap:butt;stroke-linejoin:miter;stroke-opacity:1"
         d="m -218.18061,88.055138 c 0,0 1.65364,6.378344 5.4334,12.284222 3.77979,5.90588 5.13323,7.78667 6.60887,9.02705 1.45778,1.16135 1.56488,0.70584 1.56488,0.70584 l -0.0945,-1.84264 c 0,0 -3.92153,-3.35453 -6.14212,-7.22879 -2.22062,-3.874248 -4.06326,-8.740697 -4.77195,-11.103047 l -0.70871,-2.362351 h -2.03163 z"
         id="path74"
         inkscape:connector-curvature="0"
         sodipodi:nodetypes="cccccccccc" />
      <path
         style="fill:#000000;fill-opacity:1;stroke:none;stroke-width:0.264583px;stroke-linecap:butt;stroke-linejoin:miter;stroke-opacity:1"
         d="m -215.86551,124.2936 c 0,0 2.74035,-9.26041 5.10268,-18.14285 2.36236,-8.882437 3.82701,-14.59933 4.25225,-16.914435 0.42521,-2.315105 0.42521,-2.315105 0.42521,-2.315105 l 1.98438,0.283484 c 0,0 -1.03945,4.582959 -3.68528,14.693816 -2.64583,10.11087 -3.21278,10.4416 -4.81917,16.25298 -1.60642,5.81138 -1.79541,5.76414 -1.79541,5.76414 l -1.4174,0.61421 z"
         id="path76"
         inkscape:connector-curvature="0" />
      <path
         style="fill:#000000;fill-opacity:1;stroke:#000000;stroke-width:0.264583px;stroke-linecap:butt;stroke-linejoin:miter;stroke-opacity:1"
         d="m -202.63634,112.26924 c 0,0 2.25102,2.25248 6.12643,3.05429 3.8754,0.80181 7.75081,-0.26727 10.95803,-1.9377 3.20726,-1.67044 8.21854,-6.48129 11.15851,-10.08943 2.93997,-3.608138 5.41221,-7.951268 9.02036,-16.102984 3.60813,-8.151722 6.21401,-17.973876 7.88445,-25.52424 1.67042,-7.550364 4.74404,-25.925145 5.87992,-33.007786 1.13591,-7.082645 0.73499,-13.029391 0.73499,-13.029391 0,0 -2.60586,15.501634 -4.07586,23.653353 -1.46997,8.15172 -1.16449,8.045873 -4.14268,20.780206 -2.8128,12.027129 -2.23772,10.824416 -5.94673,21.247928 -4.4812,10.413335 -3.87454,11.335516 -8.48582,17.840236 -4.74848,6.698258 -5.52668,7.674638 -9.82215,10.891238 -4.47678,2.67269 -5.61266,3.60814 -9.68852,3.60814 -4.07587,0 -9.82215,-3.64155 -9.82215,-3.64155 l -0.0334,2.23838 z"
         id="path78"
         inkscape:connector-curvature="0"
         sodipodi:nodetypes="cscscccccscscsccc" />
      <path
         style="fill:#000000;fill-opacity:1;stroke:#000000;stroke-width:0.264583px;stroke-linecap:butt;stroke-linejoin:miter;stroke-opacity:1"
         d="m -203.25848,70.756338 c 0,0 0.14967,8.132876 4.11842,19.472165 3.96875,11.339277 6.61459,15.308027 10.20535,19.465767 3.5908,4.15774 4.25225,5.76414 8.97694,7.08706 4.72472,1.32291 10.01639,0.85044 14.83556,-1.13393 4.8192,-1.98438 8.50448,-4.53572 14.17413,-10.96131 5.66962,-6.425598 11.24479,-13.040178 16.34746,-22.489584 5.10268,-9.449403 7.46504,-15.497024 8.40997,-17.10342 0.94493,-1.6064 0.94493,-1.6064 0.94493,-1.6064 l -2.36233,-0.0945 c 0,0 -3.68527,8.693455 -5.29167,11.339288 -1.60641,2.645833 -3.77975,7.559524 -7.27604,12.851191 -3.49628,5.291667 -9.26041,13.229165 -11.62277,15.497025 -2.36236,2.26786 -3.9215,3.96875 -6.75632,5.76414 -2.83483,1.79538 -6.14212,4.34672 -9.0242,5.24442 -2.88205,0.89769 -5.71688,1.6064 -9.3549,1.08668 -3.63802,-0.51972 -8.50447,-3.30729 -10.63059,-6.23661 -2.12611,-2.92931 -2.9293,-3.35454 -5.19715,-8.03199 -2.26788,-4.677457 -3.5908,-8.079237 -5.1027,-13.559901 -1.51189,-5.480655 -2.97657,-13.276413 -3.59077,-16.111236 -0.6142,-2.83482 -1.60639,-5.764136 -1.60639,-5.764136 z"
         id="path80"
         inkscape:connector-curvature="0" />
      <path
         style="fill:#000000;fill-opacity:1;stroke:#000000;stroke-width:0.264583px;stroke-linecap:butt;stroke-linejoin:miter;stroke-opacity:1"
         d="m -145.261,63.940966 c 0,0 1.33636,6.815372 4.81087,22.450642 3.47451,15.635262 3.20723,16.971612 9.08717,33.943222 5.87991,16.97162 5.87991,16.97162 5.87991,16.97162 l 1.93823,0.64154 c 0,0 -9.1659,-26.55282 -12.09524,-39.215027 -2.92931,-12.662199 -5.29166,-21.54464 -6.61458,-28.253717 -1.32292,-6.709076 -1.32292,-6.898065 -1.32292,-6.898065 h -1.88986 z"
         id="path82"
         inkscape:connector-curvature="0" />
      <path
         style="fill:#000000;fill-opacity:1;stroke:#000000;stroke-width:0.264583px;stroke-linecap:butt;stroke-linejoin:miter;stroke-opacity:1"
         d="m -122.67672,51.579751 c 0,0 3.74179,-9.42125 7.6172,-29.332832 3.8754,-19.9115783 4.54358,-21.782465 4.54358,-21.782465 v 7.0826425 c 0,0 -1.47,8.1517215 -3.34087,16.5707095 -1.87089,8.418991 -2.53907,13.229841 -4.54358,19.377041 -2.00454,6.147199 -2.93997,8.552627 -2.93997,8.552627 z"
         id="path84"
         inkscape:connector-curvature="0" />
      <path
         style="fill:#000000;fill-opacity:1;stroke:none;stroke-width:0.264583px;stroke-linecap:butt;stroke-linejoin:miter;stroke-opacity:1"
         d="m -106.37328,-0.8718935 c 0,0 3.20725,20.0452145 6.54812,39.9567945 3.34087,19.91158 4.2763,26.99422 9.08717,46.638534 4.81084,19.644305 6.1472,28.330565 12.29439,44.099465 6.1472,15.7689 7.75081,18.57523 10.82442,24.85607 3.07359,6.28083 8.28535,12.42803 8.28535,12.42803 l 2.00451,0.93545 c 0,0 -5.73931,-6.84892 -9.70806,-15.0699 -3.96875,-8.22098 -4.29948,-8.92969 -6.09487,-13.27642 -1.79538,-4.34672 -1.79538,-4.91369 -4.67743,-12.42596 -2.88208,-7.51228 -4.29948,-12.56771 -5.85864,-18.66258 -1.55917,-6.09486 -2.40959,-9.118667 -4.25223,-16.867184 -1.84264,-7.748511 -1.84264,-8.929687 -3.82701,-17.008927 -1.98438,-8.079243 -2.17337,-9.591146 -3.49629,-17.103423 -1.32291,-7.512278 -1.74812,-8.646205 -3.02381,-16.961681 -1.27566,-8.315478 -1.46466,-8.551711 -2.83483,-17.481399 -1.37014,-8.929689 -1.22841,-8.362724 -2.17334,-13.8906265 -0.94496,-5.527902 -0.75597,-6.331101 -1.7009,-10.8195685 -0.94493,-4.4884672 -1.46465,-5.9058779 -1.46465,-5.9058779 z"
         id="path86"
         inkscape:connector-curvature="0" />
      <g
         id="g57"
         style="fill:#000000;fill-opacity:1"
         transform="translate(223.43733,-7.4835475)">
        <path
           inkscape:connector-curvature="0"
           id="path45"
           d="m -374.10194,182.5677 -0.34266,-241.036176 h 5.34538 V 182.67546 h -5.01129 z"
           style="fill:#000000;fill-opacity:1;stroke:#000000;stroke-width:0.264583px;stroke-linecap:butt;stroke-linejoin:miter;stroke-opacity:1" />
        <path
           inkscape:connector-curvature="0"
           id="path47"
           d="m -369.09375,-40.816225 h 34.8683 v 10.016368 H -369.141 Z"
           style="fill:#000000;fill-opacity:1;stroke:#000000;stroke-width:0.264583px;stroke-linecap:butt;stroke-linejoin:miter;stroke-opacity:1" />
        <path
           inkscape:connector-curvature="0"
           id="path49"
           d="M -334.36718,-58.344871 V 182.97613 h 4.62341 V -58.392119 Z"
           style="fill:#000000;fill-opacity:1;stroke:#000000;stroke-width:0.264583px;stroke-linecap:butt;stroke-linejoin:miter;stroke-opacity:1" />
        <path
           inkscape:connector-curvature="0"
           id="path51"
           d="m -369.13264,59.02989 h 34.67822 V 71.7586 h -34.71162 z"
           style="fill:#000000;fill-opacity:1;stroke:#000000;stroke-width:0.264583px;stroke-linecap:butt;stroke-linejoin:miter;stroke-opacity:1" />
      </g>
      <g
         id="g66"
         transform="translate(223.43733,-7.4835475)">
        <g
           style="fill:#000000;fill-opacity:1"
           id="g43">
          <path
             style="fill:#000000;fill-opacity:1;stroke:#000000;stroke-width:0.264583px;stroke-linecap:butt;stroke-linejoin:miter;stroke-opacity:1"
             d="m -447.7128,176.99256 -0.63183,-123.876009 h 2.80633 V 177.06279 h -2.17157 z"
             id="path34"
             inkscape:connector-curvature="0" />
          <path
             style="fill:#000000;fill-opacity:1;stroke:#000000;stroke-width:0.264583px;stroke-linecap:butt;stroke-linejoin:miter;stroke-opacity:1"
             d="m -445.53944,58.591513 h 17.2924 v 2.834822 h -17.2924 z"
             id="path36"
             inkscape:connector-curvature="0" />
          <path
             style="fill:#000000;fill-opacity:1;stroke:#000000;stroke-width:0.264583px;stroke-linecap:butt;stroke-linejoin:miter;stroke-opacity:1"
             d="m -428.29427,53.6542 v 123.4801 h 2.43322 l -0.56748,-123.683663 -1.86397,0.0059 z"
             id="path38"
             inkscape:connector-curvature="0"
             sodipodi:nodetypes="cccccc" />
        </g>
        <path
           inkscape:connector-curvature="0"
           id="path59"
           d="m -445.5383,92.421876 h 17.20548 v 3.30746 h -17.18878 z"
           style="fill:#000000;fill-opacity:1;stroke:#000000;stroke-width:0.264583px;stroke-linecap:butt;stroke-linejoin:miter;stroke-opacity:1" />
      </g>
      <path
         style="fill:#000000;fill-opacity:1;stroke:#000000;stroke-width:0.264583px;stroke-linecap:butt;stroke-linejoin:miter;stroke-opacity:1"
         d="m -248.08797,166.4852 c 0,0 18.52083,-34.39584 31.37201,-41.95536 12.85121,-7.55952 23.05656,-9.26042 45.92413,-3.2128 22.86757,6.04762 72.97118,22.80478 140.05584,60.75706 h -51.51493 c 0,0 -59.62574,-38.07849 -83.43824,-47.71688 -23.8125,-9.63839 -35.90774,-14.36309 -48.38096,-6.99256 -12.47321,7.37054 -34.01785,39.12054 -34.01785,39.12054 z"
         id="path68"
         inkscape:connector-curvature="0" />
      <path
         style="fill:#0e0e0e;fill-opacity:1;stroke:#000000;stroke-width:0.264583px;stroke-linecap:butt;stroke-linejoin:miter;stroke-opacity:1"
         d="m -243.48253,158.42074 c 0,0 18.26212,-44.85221 19.30157,-58.648337 v 6.236607 c 0,0 -1.12725,8.8468 -4.60176,17.53306 -3.4745,8.68626 -3.74177,10.55715 -7.88445,20.57975 -4.14268,10.02261 -6.81536,14.29892 -6.81536,14.29892 z"
         id="path70"
         inkscape:connector-curvature="0" />
    </g>
  </g>
</svg>
